<?xml version="1.0" encoding="utf-8"?>
<!-- Generator: Adobe Illustrator 23.0.5, SVG Export Plug-In . SVG Version: 6.00 Build 0)  -->
<svg version="1.1" id="Layer_1" xmlns="http://www.w3.org/2000/svg" xmlns:xlink="http://www.w3.org/1999/xlink" x="0px" y="0px"
	 viewBox="0 0 10 10" style="enable-background:new 0 0 10 10;" xml:space="preserve">
<style type="text/css">
	.st0{fill:#C0C0C0;}
</style>
<g>
	<path class="st0" d="M10,7.87C9.95,7.98,9.86,8.02,9.74,8.02c-3.16,0-6.31,0-9.47,0C0.14,8.02,0.05,7.98,0,7.87
		C0,7.83,0,7.8,0,7.76c0.06-0.11,0.15-0.15,0.28-0.15c0.56,0,1.13,0,1.69,0c0.04,0,0.08,0,0.12,0c-0.27-1.18,0.02-2.2,0.98-2.99
		C3.7,4.1,4.45,3.89,5.27,3.96C7.1,4.11,8.4,5.83,7.9,7.61c0.04,0,0.08,0,0.12,0c0.57,0,1.14,0,1.71,0c0.13,0,0.22,0.03,0.28,0.15
		C10,7.8,10,7.83,10,7.87z M5,7.61c0.79,0,1.58,0,2.36,0c0.07,0,0.11-0.02,0.13-0.09c0.12-0.4,0.14-0.8,0.04-1.21
		C7.23,5,5.95,4.17,4.56,4.38C3.05,4.61,2.07,6.12,2.5,7.52c0.02,0.07,0.05,0.09,0.13,0.09C3.42,7.61,4.21,7.61,5,7.61z"/>
	<path class="st0" d="M3.08,9.8C3.06,9.79,3.04,9.77,3.02,9.75C2.95,9.7,2.93,9.62,2.96,9.54c0.03-0.08,0.09-0.12,0.17-0.13
		c0.04,0,0.07,0,0.11,0c1.18,0,2.35,0,3.53,0c0.02,0,0.05,0,0.07,0c0.11,0,0.19,0.06,0.21,0.15c0.03,0.09-0.01,0.17-0.1,0.23
		C6.94,9.79,6.93,9.8,6.92,9.8C5.64,9.8,4.36,9.8,3.08,9.8z"/>
	<path class="st0" d="M5.06,0.2c0.06,0.05,0.12,0.09,0.17,0.14C5.39,0.49,5.56,0.64,5.72,0.8c0.1,0.1,0.11,0.22,0.03,0.3
		C5.66,1.19,5.53,1.18,5.43,1.08C5.36,1.02,5.3,0.96,5.24,0.89C5.23,0.9,5.22,0.9,5.22,0.9c0,0.03,0,0.06,0,0.1c0,0.35,0,0.7,0,1.05
		c0,0.13-0.07,0.22-0.18,0.23C4.89,2.3,4.79,2.21,4.79,2.05c0-0.31,0-0.62,0-0.94c0-0.07,0-0.14,0-0.23C4.7,0.96,4.63,1.03,4.56,1.1
		c-0.11,0.1-0.25,0.09-0.33-0.02C4.18,0.99,4.18,0.91,4.25,0.84c0.2-0.2,0.41-0.4,0.62-0.6C4.89,0.22,4.92,0.21,4.94,0.2
		C4.98,0.2,5.02,0.2,5.06,0.2z"/>
	<path class="st0" d="M2.18,5.16c-0.01,0.15-0.16,0.26-0.3,0.19C1.71,5.27,1.55,5.18,1.39,5.08C1.3,5.03,1.29,4.92,1.33,4.83
		C1.38,4.74,1.5,4.69,1.59,4.74c0.17,0.08,0.34,0.18,0.5,0.28C2.13,5.04,2.15,5.11,2.18,5.16z"/>
	<path class="st0" d="M1.24,6.65c0.08,0,0.17,0,0.25,0c0.12,0,0.21,0.09,0.21,0.2c0,0.11-0.08,0.19-0.2,0.2c-0.18,0-0.35,0-0.53,0
		c-0.12,0-0.2-0.08-0.21-0.19c0-0.11,0.08-0.2,0.21-0.2C1.07,6.65,1.15,6.65,1.24,6.65z"/>
	<path class="st0" d="M3.03,3.31c0.03,0.02,0.1,0.05,0.13,0.1c0.09,0.13,0.17,0.27,0.25,0.41C3.48,3.93,3.44,4.05,3.34,4.1
		c-0.1,0.06-0.22,0.03-0.29-0.08C2.97,3.89,2.89,3.75,2.81,3.61C2.73,3.47,2.83,3.31,3.03,3.31z"/>
	<path class="st0" d="M4.79,3.23c0-0.08,0-0.16,0-0.23c0-0.12,0.09-0.2,0.21-0.2c0.11,0,0.2,0.08,0.2,0.2c0,0.16,0,0.32,0,0.49
		c0,0.12-0.09,0.19-0.2,0.2c-0.12,0-0.21-0.08-0.21-0.2C4.78,3.39,4.79,3.31,4.79,3.23z"/>
	<path class="st0" d="M8.73,7.05c-0.08,0-0.17,0-0.25,0c-0.11-0.01-0.19-0.09-0.19-0.2c0-0.1,0.08-0.19,0.19-0.2
		c0.17-0.01,0.34-0.01,0.51,0c0.11,0,0.19,0.1,0.19,0.2c0,0.1-0.08,0.18-0.19,0.19C8.9,7.05,8.82,7.05,8.73,7.05
		C8.73,7.05,8.73,7.05,8.73,7.05z"/>
	<path class="st0" d="M8.64,4.99C8.62,5.02,8.58,5.09,8.53,5.12C8.4,5.2,8.27,5.27,8.14,5.34C8.03,5.4,7.9,5.36,7.85,5.26
		c-0.06-0.1-0.02-0.21,0.09-0.27c0.13-0.08,0.26-0.15,0.4-0.22C8.48,4.7,8.64,4.79,8.64,4.99z"/>
	<path class="st0" d="M6.93,3.35c0.2,0,0.31,0.15,0.23,0.29C7.09,3.78,7.01,3.91,6.92,4.04c-0.06,0.1-0.18,0.12-0.27,0.06
		c-0.1-0.05-0.13-0.17-0.08-0.27c0.07-0.13,0.15-0.26,0.24-0.39C6.84,3.4,6.91,3.37,6.93,3.35z"/>
	<path class="st0" d="M5.01,8.51c1.15,0,2.29,0,3.44,0c0.16,0,0.25,0.08,0.25,0.2c0,0.1-0.07,0.18-0.18,0.19c-0.04,0-0.08,0-0.12,0
		c-2.27,0-4.54,0-6.81,0c-0.04,0-0.07,0-0.11,0C1.38,8.9,1.31,8.82,1.3,8.71c0-0.1,0.07-0.19,0.18-0.2c0.04,0,0.07,0,0.11,0
		C2.73,8.51,3.87,8.51,5.01,8.51z"/>
</g>
</svg>
