<?xml version="1.0" encoding="utf-8"?>
<!-- Generator: Adobe Illustrator 23.0.5, SVG Export Plug-In . SVG Version: 6.00 Build 0)  -->
<svg version="1.1" id="Layer_1" xmlns="http://www.w3.org/2000/svg" xmlns:xlink="http://www.w3.org/1999/xlink" x="0px" y="0px"
	 viewBox="0 0 10 10" style="enable-background:new 0 0 10 10;" xml:space="preserve">
<style type="text/css">
	.st0{fill:#C0C0C0;}
</style>
<path class="st0" d="M10.02,7.6C9.96,7.71,9.86,7.74,9.74,7.74c-3.15,0-6.29,0-9.44,0c-0.13,0-0.22-0.03-0.28-0.15
	c0-0.04,0-0.08,0-0.12c0.05-0.12,0.15-0.16,0.27-0.16c0.58,0,1.16,0,1.74,0c0.08,0,0.11-0.02,0.14-0.09
	c0.43-1.18,1.26-1.88,2.5-2.03c1.44-0.18,2.76,0.68,3.21,2.06C7.88,7.28,7.89,7.3,7.9,7.32c0.06,0,0.13,0,0.19,0
	c0.55,0,1.09,0,1.64,0c0.13,0,0.22,0.03,0.29,0.14C10.02,7.51,10.02,7.55,10.02,7.6z M7.45,7.32C7.21,6.51,6.32,5.55,4.94,5.59
	C3.65,5.62,2.8,6.55,2.58,7.32C4.21,7.32,5.83,7.32,7.45,7.32z"/>
<path class="st0" d="M5.26,1.88c0.06-0.07,0.12-0.14,0.19-0.21c0.1-0.1,0.23-0.1,0.31-0.01c0.08,0.09,0.08,0.21-0.02,0.3
	C5.56,2.16,5.37,2.34,5.19,2.53c-0.11,0.11-0.22,0.1-0.33,0C4.67,2.34,4.48,2.16,4.3,1.97c-0.1-0.1-0.11-0.22-0.02-0.31
	c0.09-0.09,0.21-0.08,0.31,0.01C4.66,1.74,4.72,1.81,4.8,1.9c0-0.07,0.01-0.1,0.01-0.13c0-0.36,0-0.73,0-1.09
	c0-0.18,0.15-0.28,0.29-0.22C5.2,0.5,5.23,0.58,5.23,0.69c0,0.36,0,0.72,0,1.07c0,0.03,0,0.07,0,0.1C5.24,1.87,5.25,1.88,5.26,1.88z
	"/>
<path class="st0" d="M2.2,6.44C2.18,6.6,2.03,6.7,1.9,6.63C1.73,6.55,1.57,6.45,1.42,6.36C1.32,6.3,1.31,6.18,1.36,6.09
	C1.41,6,1.52,5.95,1.61,6c0.17,0.09,0.34,0.19,0.5,0.29C2.16,6.32,2.17,6.39,2.2,6.44z"/>
<path class="st0" d="M3.47,5.15c-0.01,0.1-0.05,0.17-0.14,0.2C3.24,5.38,3.15,5.36,3.1,5.29C3,5.13,2.9,4.96,2.82,4.8
	c-0.05-0.09,0-0.2,0.08-0.25C2.99,4.49,3.11,4.5,3.16,4.59c0.1,0.16,0.2,0.33,0.29,0.5C3.46,5.11,3.46,5.13,3.47,5.15z"/>
<path class="st0" d="M4.81,4.43c0-0.08,0-0.16,0-0.24C4.81,4.06,4.9,3.98,5.02,3.98c0.11,0,0.2,0.08,0.2,0.2c0,0.17,0,0.34,0,0.51
	c0,0.12-0.09,0.2-0.2,0.2c-0.12,0-0.2-0.08-0.21-0.21C4.8,4.6,4.81,4.51,4.81,4.43z"/>
<path class="st0" d="M8.66,6.26C8.63,6.29,8.6,6.36,8.54,6.4C8.42,6.48,8.29,6.55,8.16,6.62C8.04,6.68,7.92,6.65,7.86,6.54
	c-0.06-0.1-0.02-0.22,0.09-0.28c0.13-0.08,0.26-0.16,0.4-0.23C8.5,5.96,8.66,6.05,8.66,6.26z"/>
<path class="st0" d="M6.8,5.37c-0.18,0-0.29-0.16-0.22-0.28c0.08-0.15,0.16-0.3,0.26-0.45C6.9,4.55,7.01,4.53,7.1,4.58
	C7.2,4.64,7.24,4.75,7.19,4.85C7.11,4.99,7.03,5.14,6.94,5.28C6.9,5.33,6.83,5.35,6.8,5.37z"/>
<path class="st0" d="M5.03,8.26c1.13,0,2.25,0,3.38,0c0.04,0,0.08,0,0.13,0c0.11,0.01,0.18,0.1,0.18,0.21c0,0.1-0.08,0.19-0.18,0.2
	c-0.04,0-0.07,0-0.11,0c-2.27,0-4.54,0-6.82,0c-0.19,0-0.29-0.07-0.29-0.21c0-0.14,0.09-0.2,0.28-0.2C2.75,8.26,3.89,8.26,5.03,8.26
	z"/>
<path class="st0" d="M5.02,9.6c-0.6,0-1.19,0-1.79,0c-0.04,0-0.09,0-0.13-0.02c-0.09-0.03-0.14-0.1-0.14-0.19
	c0-0.1,0.05-0.16,0.14-0.19c0.04-0.01,0.09-0.02,0.13-0.02c1.19,0,2.37,0,3.56,0c0.03,0,0.05,0,0.08,0c0.12,0.01,0.19,0.09,0.2,0.2
	c0,0.11-0.08,0.2-0.2,0.21c-0.03,0-0.06,0-0.1,0C6.19,9.6,5.61,9.6,5.02,9.6z"/>
</svg>
